<?xml version="1.0" encoding="utf-8"?>
<!-- Generator: Adobe Illustrator 26.0.1, SVG Export Plug-In . SVG Version: 6.00 Build 0)  -->
<svg version="1.1" id="Layer_1" xmlns="http://www.w3.org/2000/svg" xmlns:xlink="http://www.w3.org/1999/xlink" x="0px" y="0px"
	 viewBox="0 0 48 48" style="enable-background:new 0 0 48 48;" xml:space="preserve">
<style type="text/css">
	.st0{fill:#101111;stroke:#FFFFFF;}
	.st1{fill:#FFFFFF;}
	.st2{font-family:'Helvetica';}
	.st3{font-size:19.1706px;}
</style>
<path class="st0" d="M24,0.5L24,0.5C37,0.5,47.5,11,47.5,24l0,0C47.5,37,37,47.5,24,47.5l0,0C11,47.5,0.5,37,0.5,24l0,0
	C0.5,11,11,0.5,24,0.5z"/>
<g>
	<path class="st1" d="M73.4,17.4v2.5h-5.5v1.9h1.1c1.8,0,3.1,0.4,4,1.2c0.9,0.9,1.4,2.1,1.4,3.6c0,1.1-0.4,2.1-1.3,2.9
		c-0.9,0.8-2,1.2-3.3,1.2c-1.2,0-2.3-0.2-3.1-0.5s-1.5-0.8-2.1-1.4l1.8-1.8c0.6,0.7,1.5,1.1,2.8,1.2c1.6,0,2.5-0.6,2.6-1.8
		c0-0.8-0.3-1.3-0.8-1.6c-0.3-0.3-1.2-0.5-2.9-0.5h-2.8v-6.8H73.4z"/>
</g>
<g>
	<path class="st1" d="M82.3,18.4L82.3,18.4l2.6,0v7.7h1.8v2.6H85v2.9h-2.6v-2.9h-6v-2.6h0.1L76.3,26L82.3,18.4z M82.3,26.1v-4.2
		l-3.2,4.2H82.3z"/>
</g>
<text transform="matrix(1 0 0 1 18.6691 30.8911)" class="st1 st2 st3">6</text>
</svg>
