<svg id="Layer_1" data-name="Layer 1" xmlns="http://www.w3.org/2000/svg" viewBox="0 0 48 48"><defs><style>.cls-1{fill:#101111;stroke:#fff;}.cls-2{fill:#fff;}</style></defs><path class="cls-1" d="M24,.5h0A23.5,23.5,0,0,1,47.5,24h0A23.5,23.5,0,0,1,24,47.5h0A23.5,23.5,0,0,1,.5,24h0A23.5,23.5,0,0,1,24,.5Z" transform="translate(0 0)"/><path class="cls-2" d="M28,17.36v2.48H22.46V21.7h1.06a6,6,0,0,1,4,1.19,4.85,4.85,0,0,1,1.38,3.59,3.86,3.86,0,0,1-1.34,2.92,4.62,4.62,0,0,1-3.28,1.24,7.79,7.79,0,0,1-3.09-.53,6.47,6.47,0,0,1-2.13-1.42l1.77-1.77a3.71,3.71,0,0,0,2.84,1.15c1.59,0,2.47-.58,2.61-1.75a2,2,0,0,0-.81-1.65c-.27-.29-1.22-.45-2.85-.49H19.8V17.36Z" transform="translate(0 0)"/></svg>